<svg xmlns="http://www.w3.org/2000/svg" width="24" height="24" viewBox="0 0 24 24">
  <g id="icon_Scheduled_Container_24" data-name="icon_Scheduled Container_24" transform="translate(0)">
    <rect id="Rectangle_1650" data-name="Rectangle 1650" width="24" height="24" transform="translate(0 0)" fill="#fff" opacity="0"/>
    <g id="Group_2917" data-name="Group 2917" transform="translate(0 0)">
      <rect id="Rectangle_1952" data-name="Rectangle 1952" width="24" height="24" fill="none"/>
      <path id="Path_13284" data-name="Path 13284" d="M21.965,6.738a.776.776,0,0,0-.03-.072,1.085,1.085,0,0,0-.071-.168c-.016-.027-.039-.05-.058-.076a1.043,1.043,0,0,0-.1-.129.918.918,0,0,0-.085-.066.984.984,0,0,0-.113-.089l-.012,0-.01-.007-9-5a1,1,0,0,0-.971,0l-9,5-.009.007-.012,0a.957.957,0,0,0-.112.087.966.966,0,0,0-.087.068.929.929,0,0,0-.1.122.736.736,0,0,0-.063.084.961.961,0,0,0-.067.158c-.01.027-.026.053-.034.081A.992.992,0,0,0,2,7V17a1,1,0,0,0,.514.874l8.978,4.988h0l.02.011a.987.987,0,0,0,.136.054.87.87,0,0,0,.1.038.966.966,0,0,0,.508,0,.971.971,0,0,0,.1-.038.915.915,0,0,0,.134-.054l.02-.011h0l8.977-4.988A1,1,0,0,0,22,17V7A.991.991,0,0,0,21.965,6.738ZM11,20.3l-7-3.89V8.7l7,3.889Zm1-9.445L5.059,7,12,3.144,18.94,7ZM16.519,19V16l-3.36,1.915v-3L16.519,13V10L21,11.942Z" transform="translate(0 0)" fill="#fff"/>
    </g>
  </g>
</svg>
