<svg xmlns="http://www.w3.org/2000/svg" xmlns:xlink="http://www.w3.org/1999/xlink" width="56" height="56" viewBox="0 0 56 56">
  <defs>
    <filter id="Union_58" x="4.502" y="12.1" width="46.996" height="37.732" filterUnits="userSpaceOnUse">
      <feOffset dy="3" input="SourceAlpha"/>
      <feGaussianBlur stdDeviation="3" result="blur"/>
      <feFlood flood-opacity="0.161"/>
      <feComposite operator="in" in2="blur"/>
      <feComposite in="SourceGraphic"/>
    </filter>
  </defs>
  <g id="icon_資料儲存服務_56" transform="translate(-36 -81)">
    <circle id="Ellipse_1111" data-name="Ellipse 1111" cx="28" cy="28" r="28" transform="translate(36 81)" fill="#0194d5"/>
    <g id="Storage" transform="translate(50 95.003)">
      <rect id="Bounds" width="27.997" height="27.997" transform="translate(0.003)" fill="#fff" opacity="0"/>
      <g transform="matrix(1, 0, 0, 1, -14, -14)" filter="url(#Union_58)">
        <path id="Union_58-2" data-name="Union 58" d="M19961.334,1800.655v-4.667h3.5l-5.828-5.83-5.836,5.83h3.5v4.667h-5.836a5.986,5.986,0,0,1-5.828-6.125,6.3,6.3,0,0,1,1.5-4.1,5.747,5.747,0,0,1,3.7-1.985,7.232,7.232,0,0,1,6.467-4.12,7.4,7.4,0,0,1,7.143,6.165,4.761,4.761,0,0,1,3.207,1.589,5.166,5.166,0,0,1,1.314,3.474,4.987,4.987,0,0,1-4.857,5.1Zm7.43-10.13a7.125,7.125,0,0,0-3.064-2.02,9.739,9.739,0,0,0-4.691-5.414,5.437,5.437,0,0,1,8.607,3.308,3.623,3.623,0,0,1,.742,7.1A7.535,7.535,0,0,0,19968.764,1790.524Z" transform="translate(-19931 -1763.32)" fill="#fff" stroke="rgba(0,0,0,0)" stroke-miterlimit="10" stroke-width="1"/>
      </g>
    </g>
  </g>
</svg>
