<svg xmlns="http://www.w3.org/2000/svg" xmlns:xlink="http://www.w3.org/1999/xlink" width="56" height="56" viewBox="0 0 56 56">
  <defs>
    <filter id="Union_5" x="5.226" y="8.227" width="45.31" height="45.309" filterUnits="userSpaceOnUse">
      <feOffset dy="3" input="SourceAlpha"/>
      <feGaussianBlur stdDeviation="3" result="blur"/>
      <feFlood flood-opacity="0.161"/>
      <feComposite operator="in" in2="blur"/>
      <feComposite in="SourceGraphic"/>
    </filter>
  </defs>
  <g id="icon_負載平衡_56" transform="translate(-36 -81)">
    <circle id="Ellipse_1064" data-name="Ellipse 1064" cx="28" cy="28" r="28" transform="translate(36 81)" fill="#6071bf"/>
    <g id="Group_3791" data-name="Group 3791" transform="translate(50 95)">
      <rect id="Rectangle_2153" data-name="Rectangle 2153" width="28" height="28" fill="none"/>
      <g id="Group_3790" data-name="Group 3790">
        <g transform="matrix(1, 0, 0, 1, -14, -14)" filter="url(#Union_5)">
          <path id="Union_5-2" data-name="Union 5" d="M10542.559,18827.041l-9.535-9.535a3.5,3.5,0,0,1,0-4.951l9.535-9.531a3.5,3.5,0,0,1,4.947,0l9.535,9.531a3.5,3.5,0,0,1,0,4.951l-9.535,9.535a3.5,3.5,0,0,1-4.947,0Zm1.649-22.369-9.536,9.537a1.169,1.169,0,0,0,0,1.648l9.536,9.535a1.2,1.2,0,0,0,1.648,0l9.536-9.535a1.181,1.181,0,0,0,.34-.826,1.158,1.158,0,0,0-.34-.822l-9.536-9.537a1.169,1.169,0,0,0-1.648,0Zm-1.508,16.775a2.319,2.319,0,0,1,1.167-2.008v-1.125a3.465,3.465,0,0,1-2.121-2.117h-2.547v2.334l-3.5-3.5,3.5-3.5v2.334h2.547a3.474,3.474,0,0,1,2.121-2.117v-2.547h-2.334l3.5-3.5,3.5,3.5h-2.334v2.547a3.486,3.486,0,0,1,2.121,2.117h2.547v-2.334l3.5,3.5-3.5,3.5v-2.334h-2.547a3.477,3.477,0,0,1-2.121,2.117v1.125a2.328,2.328,0,1,1-3.5,2.008Zm1.167-6.416a1.165,1.165,0,1,0,1.163-1.168A1.165,1.165,0,0,0,10543.867,18815.031Z" transform="translate(-10517.03 -18787.03)" fill="#fff" stroke="rgba(0,0,0,0)" stroke-miterlimit="10" stroke-width="1"/>
        </g>
      </g>
    </g>
  </g>
</svg>
