<svg id="icon_負載平衡_24" xmlns="http://www.w3.org/2000/svg" width="24" height="24" viewBox="0 0 24 24">
  <rect id="Rectangle_2153" data-name="Rectangle 2153" width="24" height="24" fill="none"/>
  <path id="Union_5" data-name="Union 5" d="M8.939,21.2.867,13.126a2.966,2.966,0,0,1,0-4.191L8.939.866a2.961,2.961,0,0,1,4.188,0L21.2,8.935a2.964,2.964,0,0,1,0,4.191L13.127,21.2a2.961,2.961,0,0,1-4.187,0Zm1.4-18.937L2.263,10.335a.99.99,0,0,0,0,1.4L10.336,19.8a1.014,1.014,0,0,0,1.4,0L19.8,11.73a1,1,0,0,0,.288-.7.981.981,0,0,0-.288-.7L11.731,2.262a.989.989,0,0,0-1.4,0ZM9.06,16.462a1.962,1.962,0,0,1,.987-1.7v-.952a2.931,2.931,0,0,1-1.795-1.793H6.1v1.977L3.131,11.031,6.1,8.066v1.976H8.252A2.941,2.941,0,0,1,10.047,8.25V6.094H8.071l2.96-2.965L14,6.094H12.02V8.25a2.952,2.952,0,0,1,1.8,1.792h2.156V8.066l2.964,2.965-2.964,2.963V12.018H13.815a2.942,2.942,0,0,1-1.8,1.793v.952a1.971,1.971,0,1,1-2.96,1.7Zm.987-5.431a.986.986,0,1,0,.984-.989A.986.986,0,0,0,10.047,11.031Z" transform="translate(0.968 0.969)" fill="#fff" stroke="rgba(0,0,0,0)" stroke-miterlimit="10" stroke-width="1"/>
</svg>
