<svg id="Icon_Log_24" xmlns="http://www.w3.org/2000/svg" width="24" height="24" viewBox="0 0 24 24">
  <path id="Path_22840" data-name="Path 22840" d="M0,0H24V24H0Z" fill="none"/>
  <path id="Subtraction_1" data-name="Subtraction 1" d="M2388,20623h-12.013a2,2,0,0,1-1.988-2v-16a2,2,0,0,1,2-2h8l6,6v12A2,2,0,0,1,2388,20623Zm-2.453-6.428a1.808,1.808,0,0,0-1.827,1.947,1.74,1.74,0,0,0,1.843,1.908,1.825,1.825,0,0,0,1.242-.455v-1.738h-1.387v.729h.59v.6a.6.6,0,0,1-.352.1c-.667,0-1.02-.4-1.02-1.17,0-.7.37-1.158.942-1.158a.953.953,0,0,1,.688.289l.471-.568A1.64,1.64,0,0,0,2385.549,20616.57Zm-4.053,0a1.682,1.682,0,0,0-1.708,1.9,1.721,1.721,0,1,0,3.411,0A1.68,1.68,0,0,0,2381.5,20616.57Zm-4.306.068h0v3.721h2.339v-.75h-1.444v-2.971ZM2376,20605h0v9h12v-4h-5v-5Zm5.5,14.662c-.488,0-.792-.455-.792-1.186,0-.715.3-1.143.792-1.143s.792.428.792,1.143C2382.288,20619.205,2381.985,20619.66,2381.5,20619.66Z" transform="translate(-2369.998 -20600.998)" fill="rgba(0,0,0,0.6)"/>
</svg>
