<svg id="icon_虛擬機器_24" xmlns="http://www.w3.org/2000/svg" width="24" height="24" viewBox="0 0 24 24">
  <rect id="bound" width="24" height="24" fill="none"/>
  <path id="Device" d="M21,2H3A2.006,2.006,0,0,0,1,4V16a2.006,2.006,0,0,0,2,2h7L8,21v1h8V21l-2-3h7a2.006,2.006,0,0,0,2-2V4A2.006,2.006,0,0,0,21,2Zm0,14H3V4H21Z" transform="translate(0 0)" fill="#fff"/>
  <path id="Cube" d="M16.7,7.374c-.024-.041-.07-.065-.1-.1A.744.744,0,0,0,16.43,7.1l-.009,0-.007-.007-4.05-2.25a.748.748,0,0,0-.728,0l-4.05,2.25L7.579,7.1l-.009,0a.737.737,0,0,0-.173.175c-.029.034-.072.056-.095.1a.754.754,0,0,0-.1.376v4.5a.75.75,0,0,0,.386.655l4.033,2.241h0l.016.008a.745.745,0,0,0,.728,0l4.05-2.25a.75.75,0,0,0,.386-.655V7.75A.754.754,0,0,0,16.7,7.374ZM12,6.358,14.506,7.75,12,9.142,9.5,7.75ZM8.7,9.025l1.636.909.914.507v2.785L8.7,11.809Z" transform="translate(0 0)" fill="#fff"/>
</svg>
