<svg id="icon__Docker_Image__24" data-name="icon_ Docker Image_ 24" xmlns="http://www.w3.org/2000/svg" width="24" height="24" viewBox="0 0 24 24">
  <path id="Bound" d="M0,0H24V24H0Z" fill="none"/>
  <path id="File" d="M17,0H4A2.006,2.006,0,0,0,2,2V22a2,2,0,0,0,1.99,2H20a2.006,2.006,0,0,0,2-2V5Zm3,22H4V2H16V6h4Z" fill="#fff"/>
  <g id="Container_icon_" data-name="Container icon ">
    <path id="Surface" d="M12,13.045l4.5-2.273v5.455L12,18.5Z" fill="#fff"/>
    <path id="Line" d="M16.726,10.326l-4.5-2.273a.5.5,0,0,0-.451,0l-4.5,2.273A.5.5,0,0,0,7,10.772v5.456a.5.5,0,0,0,.275.446l4.5,2.272.014,0a.47.47,0,0,0,.422,0l.015,0,4.5-2.272A.5.5,0,0,0,17,16.228V10.772A.5.5,0,0,0,16.726,10.326ZM12,9.06l3.391,1.712L12,12.485,8.609,10.772ZM8,11.585l3.5,1.768v4.334L8,15.92Zm4.5,6.1V13.353L16,11.585V15.92Z" fill="#fff"/>
  </g>
</svg>
