<svg xmlns="http://www.w3.org/2000/svg" width="24" height="25" viewBox="0 0 24 25">
  <g id="icon_虛擬映像檔管理_24" transform="translate(0 0.5)">
    <path id="Bound" d="M0,0H24V24H0Z" fill="none"/>
    <path id="Union_55" data-name="Union 55" d="M2060.991,18568a2,2,0,0,1-1.99-2v-20a2,2,0,0,1,2-2h13l5,5v17a2.01,2.01,0,0,1-2,2Zm.009-2h16v-16h-4v-4h-12Zm7.638-1.705-.019,0-4.031-2.242a.75.75,0,0,1-.387-.656v-4.5a.746.746,0,0,1,.1-.373c.023-.037.065-.061.093-.1a.738.738,0,0,1,.172-.172l.009-.006.01,0,4.049-2.252a.752.752,0,0,1,.727,0l4.05,2.252,0,0,.009.006a.694.694,0,0,1,.168.166c.033.039.079.061.1.1a.746.746,0,0,1,.1.373v4.5a.759.759,0,0,1-.387.656l-4.05,2.246a.725.725,0,0,1-.727,0Zm-2.936-3.346,2.549,1.422v-2.787l-.913-.508-1.636-.908Zm.792-4.059,2.507,1.393,2.507-1.393L2069,18555.5Zm4.11-3.891v-1l.1-2.037-1.034,3.035h-.68l-1.034-3.039.1,2.041v1h-1.03v-4.264h1.352l.95,2.967.951-2.967h1.351V18553Zm-6.743,0-1.426-4.264h1.142l.843,3.1.853-3.1h1.146l-1.435,4.264Z" transform="translate(-2057 -18544)" fill="#fff" stroke="rgba(0,0,0,0)" stroke-miterlimit="10" stroke-width="1"/>
  </g>
</svg>
