<svg id="icon_MFA_24" xmlns="http://www.w3.org/2000/svg" width="24" height="24" viewBox="0 0 24 24">
  <rect id="Rectangle_2024" data-name="Rectangle 2024" width="24" height="24" fill="none"/>
  <path id="Path_16995" data-name="Path 16995" d="M14,17v3H4V4H14V6h2V3a2.006,2.006,0,0,0-2-2H4A2.006,2.006,0,0,0,2,3V21a2.006,2.006,0,0,0,2,2H14a2.006,2.006,0,0,0,2-2V17Z" fill="#fff"/>
  <path id="Path_16996" data-name="Path 16996" d="M21,7.5H8a2.006,2.006,0,0,0-2,2v4a2.007,2.007,0,0,0,2,2H9V18l2.143-2.5H21a2.007,2.007,0,0,0,2-2v-4a2.006,2.006,0,0,0-2-2m-9.5,4.372h-.85l.425.74-.65.375L10,12.248l-.425.74-.65-.375.425-.74H8.5v-.75h.85l-.425-.735.65-.375.425.735.425-.735.65.375-.425.735h.85Zm4.5,0h-.85l.425.74-.65.375-.425-.74-.425.74-.65-.375.425-.74H13v-.75h.85l-.425-.735.65-.375.425.735.425-.735.65.375-.425.735H16Zm4.5,0h-.85l.425.74-.65.375L19,12.248l-.425.74-.65-.375.425-.74H17.5v-.75h.85l-.425-.735.65-.375.425.735.425-.735.65.375-.425.735h.85Z" fill="#fff"/>
</svg>
