<svg xmlns="http://www.w3.org/2000/svg" width="54" height="54" viewBox="0 0 54 54">
  <g id="icon" transform="translate(0.203 0.203)">
    <rect id="Rectangle_1650" data-name="Rectangle 1650" width="54" height="54" transform="translate(-0.203 -0.203)" fill="#fff" opacity="0"/>
    <g id="Group_2917" data-name="Group 2917" transform="translate(-0.127 -0.127)">
      <rect id="Rectangle_1952" data-name="Rectangle 1952" width="54" height="54" transform="translate(-0.076 -0.076)" fill="none"/>
      <path id="Path_13284" data-name="Path 13284" d="M46.567,13.809a1.73,1.73,0,0,0-.067-.161,2.422,2.422,0,0,0-.158-.375c-.036-.06-.087-.112-.129-.17a2.327,2.327,0,0,0-.225-.288,2.049,2.049,0,0,0-.19-.147,2.2,2.2,0,0,0-.252-.2l-.027-.011-.022-.016L25.405,1.281a2.229,2.229,0,0,0-2.168,0L3.147,12.443l-.02.016-.027.011a2.136,2.136,0,0,0-.25.194,2.157,2.157,0,0,0-.194.152,2.074,2.074,0,0,0-.212.272,1.643,1.643,0,0,0-.141.188,2.145,2.145,0,0,0-.15.353c-.022.06-.058.118-.076.181A2.213,2.213,0,0,0,2,14.394V36.716a2.233,2.233,0,0,0,1.147,1.951L23.189,49.8h0l0,0,.045.025a2.2,2.2,0,0,0,.3.121,1.941,1.941,0,0,0,.214.085,2.156,2.156,0,0,0,1.134,0,2.167,2.167,0,0,0,.217-.085,2.042,2.042,0,0,0,.3-.121l.045-.025,0,0h0L45.5,38.667a2.23,2.23,0,0,0,1.15-1.951V14.394A2.213,2.213,0,0,0,46.567,13.809ZM22.09,44.085,6.465,35.4V18.188L22.09,26.87ZM24.323,23,8.828,14.394,24.323,5.786l15.492,8.608ZM34.41,41.181V34.488l-7.5,4.275v-6.69l7.5-4.284v-6.7l10,4.335Z" transform="translate(2.601 1.369)" fill="#fff"/>
    </g>
  </g>
</svg>
