<svg xmlns="http://www.w3.org/2000/svg" width="24" height="24" viewBox="0 0 24 24">
  <g id="icon_檔案共享_24" transform="translate(5668 20148)">
    <rect id="Rectangle_2172" data-name="Rectangle 2172" width="24" height="24" transform="translate(-5668 -20148)" fill="none"/>
    <path id="file-replace-outline" d="M14,3,12,1H4A2,2,0,0,0,2,3V15a2,2,0,0,0,2,2h7v2l4-3-4-3v2H4V3H14m7,7V21a2,2,0,0,1-2,2H8a2,2,0,0,1-2-2V19H8v2H19V12H14V7H8v6H6V7A2,2,0,0,1,8,5h8Z" transform="translate(-5668 -20148)" fill="#fff"/>
  </g>
</svg>
