<svg xmlns="http://www.w3.org/2000/svg" width="24" height="24" viewBox="0 0 24 24">
  <g id="icon_防火牆_24" transform="translate(-16941 15829)">
    <rect id="Rectangle_6210" data-name="Rectangle 6210" width="24" height="24" transform="translate(16941 -15829)" fill="none"/>
    <path id="wall-fire" d="M22.14,15.34l-.02.01a4.2,4.2,0,0,1,.58.92l.09.19a4.38,4.38,0,0,1-1.1,4.86A5.4,5.4,0,0,1,17.3,22.5a4.987,4.987,0,0,1-3.57-2.37,4.5,4.5,0,0,1-.53-1.28,4.105,4.105,0,0,1-.2-1.1,5.3,5.3,0,0,1,1.76-4.3,3.754,3.754,0,0,0,.39,3.77l.11.13a.456.456,0,0,0,.47.09.422.422,0,0,0,.27-.37l-.07-.24a5.9,5.9,0,0,1,1.73-6.56,4.84,4.84,0,0,1,1.8-.97,3.686,3.686,0,0,0,.63,4.2c.46.5,1.02.79,1.49,1.23l.56.61M19.86,20l-.01-.03a2.181,2.181,0,0,0,.68-1.66L20.5,18c-.2-1-1.07-1.34-1.63-2.07l-.43-.78a2.515,2.515,0,0,0-.15,1.51,4.413,4.413,0,0,1,.21,1.65,2.052,2.052,0,0,1-1.56,1.51,2.114,2.114,0,0,0,2.12.6,2.663,2.663,0,0,0,.8-.42M3,16h8.06L11,17a7.943,7.943,0,0,0,1,3.88V21H3V16M2,10H8v5H2V10m7,0h6v.07A8.032,8.032,0,0,0,11.25,15H9V10M3,4h8V9H3V4m9,0h9V9H12Z" transform="translate(16940 -15830)" fill="#fff"/>
  </g>
</svg>
