<svg xmlns="http://www.w3.org/2000/svg" width="24" height="24" viewBox="0 0 24 24">
  <g id="icon_HPC_遠端派送服務_24" data-name="icon_HPC 遠端派送服務_24" transform="translate(-16687 17377)">
    <rect id="Rectangle_6209" data-name="Rectangle 6209" width="24" height="24" transform="translate(16687 -17377)" fill="none"/>
    <path id="state-machine" d="M6.27,17.05A2.993,2.993,0,1,1,4,16a1.872,1.872,0,0,1,.53.05L7.6,10.69,5.86,9.7,9.95,8.58l1.12,4.09-1.74-.99L6.27,17.05M20,16a3.01,3.01,0,0,0-2.82,2H11V16L8,19l3,3V20h6.18A3,3,0,1,0,20,16M12,8a1.872,1.872,0,0,0,.53-.05l3.07,5.36-1.74.99,4.09,1.12,1.12-4.09-1.74.99L14.27,6.95A2.993,2.993,0,1,0,12,8Z" transform="translate(16687 -17377)" fill="#fff"/>
  </g>
</svg>
