<svg xmlns="http://www.w3.org/2000/svg" width="25.014" height="24" viewBox="0 0 25.014 24">
  <g id="icon_資料儲存服務_24" transform="translate(0.502)">
    <rect id="Bounds" width="24" height="24" transform="translate(0.002)" fill="rgba(0,0,0,0.87)" opacity="0"/>
    <path id="Union_59" data-name="Union 59" d="M19497-1478v-4h3l-5-5-5,5h3v4h-5a5.145,5.145,0,0,1-5-5.253,5.4,5.4,0,0,1,1.293-3.515,4.884,4.884,0,0,1,3.166-1.7,6.2,6.2,0,0,1,5.543-3.535,6.341,6.341,0,0,1,6.123,5.282,4.108,4.108,0,0,1,2.752,1.366,4.446,4.446,0,0,1,1.127,2.977,4.286,4.286,0,0,1-4.166,4.377Zm6.365-8.685a6.04,6.04,0,0,0-2.625-1.733,8.338,8.338,0,0,0-4.02-4.641,4.657,4.657,0,0,1,4.939-.416,4.683,4.683,0,0,1,2.439,3.251,3.118,3.118,0,0,1,2.893,3.324,3.113,3.113,0,0,1-2.262,2.766A6.347,6.347,0,0,0,19503.367-1486.689Z" transform="translate(-19482.996 1498.006)" fill="rgba(0,0,0,0.87)" stroke="rgba(0,0,0,0)" stroke-miterlimit="10" stroke-width="1"/>
  </g>
</svg>
