<svg xmlns="http://www.w3.org/2000/svg" width="25.414" height="25.414" viewBox="0 0 25.414 25.414">
  <g id="icon_自動擴展_24" transform="translate(0.708 0.707)">
    <rect id="Rectangle_2152" data-name="Rectangle 2152" width="23.998" height="23.998" transform="translate(0 0.002)" fill="none"/>
    <path id="Union_4" data-name="Union 4" d="M9,21h6l-3,3Zm2.5-1.205-6-3.464a1,1,0,0,1-.5-.866V8.536a1,1,0,0,1,.5-.866l6-3.462a.986.986,0,0,1,1,0l6,3.462a1,1,0,0,1,.5.866v6.929a.99.99,0,0,1-.5.866l-6,3.464a1.021,1.021,0,0,1-.5.136A1.008,1.008,0,0,1,11.5,19.795ZM13,17.2l3-1.731-3-1.731ZM8,15.465,11,17.2V13.734ZM14,12l3,1.731V10.267ZM7,13.734,10,12,7,10.267Zm6-3.467,3-1.731L13,6.805Zm-3.5-2.6L8,8.536l3,1.731V6.805ZM21,9l3,3-3,3ZM0,12,3,9v6ZM9,3l3-3,3,3Z" transform="translate(0)" fill="#fff" stroke="rgba(0,0,0,0)" stroke-miterlimit="10" stroke-width="1"/>
  </g>
</svg>
