<svg id="icon_資料攜出服務_24" xmlns="http://www.w3.org/2000/svg" width="24" height="24" viewBox="0 0 24 24">
  <rect id="Rectangle_2166" data-name="Rectangle 2166" width="24" height="24" fill="none"/>
  <path id="Path_17312" data-name="Path 17312" d="M20.55,5.22,19.16,3.54A1.509,1.509,0,0,0,18,3H6a1.451,1.451,0,0,0-1.15.55L3.46,5.22A1.985,1.985,0,0,0,3,6.5V19a2,2,0,0,0,2,2H19a2.006,2.006,0,0,0,2-2V6.5A2.033,2.033,0,0,0,20.55,5.22ZM12,9.5,17.5,15H14v2H10V15H6.5ZM5.12,5l.82-1h12l.93,1Z" fill="#fff"/>
</svg>
