<svg xmlns="http://www.w3.org/2000/svg" xmlns:xlink="http://www.w3.org/1999/xlink" width="157.928" height="52" viewBox="0 0 157.928 52">
  <defs>
    <filter id="Path_879" x="51.527" y="3.078" width="16.792" height="17.076" filterUnits="userSpaceOnUse">
      <feOffset dy="2" input="SourceAlpha"/>
      <feGaussianBlur stdDeviation="2" result="blur"/>
      <feFlood flood-opacity="0.4"/>
      <feComposite operator="in" in2="blur"/>
      <feComposite in="SourceGraphic"/>
    </filter>
    <filter id="Path_880" x="0" y="0" width="68.026" height="52" filterUnits="userSpaceOnUse">
      <feOffset dy="2" input="SourceAlpha"/>
      <feGaussianBlur stdDeviation="2" result="blur-2"/>
      <feFlood flood-opacity="0.502"/>
      <feComposite operator="in" in2="blur-2"/>
      <feComposite in="SourceGraphic"/>
    </filter>
    <filter id="Path_22833" x="65.54" y="7.256" width="92.388" height="38.096" filterUnits="userSpaceOnUse">
      <feOffset dy="2" input="SourceAlpha"/>
      <feGaussianBlur stdDeviation="2" result="blur-3"/>
      <feFlood flood-opacity="0.502"/>
      <feComposite operator="in" in2="blur-3"/>
      <feComposite in="SourceGraphic"/>
    </filter>
  </defs>
  <g id="NCHC_Logo" data-name="NCHC Logo" transform="translate(-24 -8)">
    <g id="NCHC_LOGO-2" data-name="NCHC LOGO" transform="translate(30 -0.779)">
      <g transform="matrix(1, 0, 0, 1, -6, 8.78)" filter="url(#Path_879)">
        <path id="Path_879-2" data-name="Path 879" d="M406.856,436.28a2.482,2.482,0,0,0,2.422-2.517,2.533,2.533,0,0,0-2.422-2.559,2.494,2.494,0,0,0-2.371,2.559A2.444,2.444,0,0,0,406.856,436.28Z" transform="translate(-346.96 -424.13)" fill="#c43429"/>
      </g>
      <g transform="matrix(1, 0, 0, 1, -6, 8.78)" filter="url(#Path_880)">
        <path id="Path_880-2" data-name="Path 880" d="M128.741,430.7l-.7-2.049H122.4l-2.471,10.014H127.3l-.752-2.238-3.676.048,1.394-5.776Zm-11.275,7.965,2.427-9.968h-2.653l-1.028,4.379-2.89-.049,1.069-4.376h-2.6l-2.568,10.014h2.656l.842-3.676h2.976l-.7,3.676Zm23.295-22.546,1.076-.751c-11.7-7.637-35.967.559-43.376,11.512h3.866c9.18-10.008,26.04-17.845,38.434-10.761Zm4.706,5.176-1.209.185c2.046,20.542-36.668,36.232-47.009,21l30.282-.284v-1.948l-35.269.1c.328,24.273,55.624,8.753,53.206-19.049Zm-50.124,17.37,1.77-.046,2.937-9.967h-2.47l-1.353,4.514-1.349-4.514H92.453l-2.936,10.014,2.512-.046,1.444-5.031Zm13.091-7.965-.7-2.049h-5.6l-2.512,10.014h7.358l-.739-2.238-3.682.05,1.4-5.776Z" transform="translate(-83.52 -408.39)" fill="#fff"/>
      </g>
    </g>
    <g transform="matrix(1, 0, 0, 1, 24, 8)" filter="url(#Path_22833)">
      <path id="Path_22833-2" data-name="Path 22833" d="M4.4-17.78h8.288v7.588h2.548V-17.78h8.316v4.116h2.408v-5.852H15.232v-1.26h8.932v-1.932H3.808v1.932h8.876v1.26H2.072v5.852H4.4Zm.7,8.288c1.96-.728,4.34-1.68,6.664-2.6l-.336-1.764c-2.66.9-5.376,1.764-7.224,2.3Zm.14-6.468a44.032,44.032,0,0,1,5.4,2.072l.952-1.624a46,46,0,0,0-5.4-1.9ZM23.268-8.988H4.732v1.932H23.268Zm-7.084-3.248A65.433,65.433,0,0,1,23.072-9.6l.84-1.764A50.589,50.589,0,0,0,17-13.8Zm5.6-5.124a38.169,38.169,0,0,1-5.712,2.072l.98,1.456a38.371,38.371,0,0,0,5.936-1.9ZM8.456-.588a38.458,38.458,0,0,0,3.3-2.828h6.692l-1.232.56c.756.532,1.568,1.2,2.352,1.876ZM26.488-5.432H1.54v2.016H8.26A19.184,19.184,0,0,1,5.768-1.372,4.031,4.031,0,0,1,4.144-.5,19.35,19.35,0,0,1,4.956,1.96C5.992,1.6,7.5,1.568,21.644.924A18.309,18.309,0,0,1,22.96,2.352l2.352-1.12a45.468,45.468,0,0,0-5.4-4.648h6.58ZM54.544-9.94H43.316v-9.184h9.632v-2.548H31v2.548h9.632V-9.94H29.54v2.632H40.628v9.52h2.688v-9.52H54.544ZM32.816-17.248a30.441,30.441,0,0,1,2.324,6.16l2.492-.84a28.077,28.077,0,0,0-2.464-6.048ZM48.244-11.06a53.723,53.723,0,0,0,3.276-6.272l-2.772-.756A37.56,37.56,0,0,1,46-11.788ZM76.3-7.224v5.432H63.56V-7.224ZM60.928,2.212H63.56V.728H76.3V2.156h2.772V-9.716H60.928Zm11.62-21.448c1.2,1.12,2.492,2.464,3.7,3.808l-13.02.532a55.1,55.1,0,0,0,6.692-7.728l-2.6-1.12a44.907,44.907,0,0,1-6.188,7.756,5.152,5.152,0,0,1-2.3,1.6,24.345,24.345,0,0,1,.84,2.548c1.26-.448,3.052-.5,18.452-1.316a22.25,22.25,0,0,1,1.624,2.3l2.184-1.624a49.152,49.152,0,0,0-7.364-8.12Z" transform="translate(70 35)" fill="#fff"/>
    </g>
  </g>
</svg>
